<svg width="143" height="65" viewBox="0 0 143 65" fill="none" xmlns="http://www.w3.org/2000/svg">
<g clip-path="url(#clip0_114_2010)">
<path d="M20.799 2.18524C21.1854 2.18524 21.3763 2.37393 21.3763 2.75569V5.87997C21.3763 6.26173 21.1854 6.45041 20.799 6.45041H13.2858V23.4541C13.2858 23.8358 13.0949 24.0245 12.7086 24.0245H8.6944C8.30809 24.0245 8.11715 23.8358 8.11715 23.4541V6.45041H0.839262C0.590597 6.45041 0.386337 6.36704 0.226481 6.2003C0.0666251 6.03355 1.84793e-05 5.81415 0.0222207 5.54648L0.293088 2.72497C0.337492 2.36515 0.532872 2.18524 0.870345 2.18524H20.799Z" fill="white"/>
<path d="M36.9889 23.2873C37.0777 23.6471 36.909 23.849 36.4782 23.8929L33.1124 24.3624C32.7705 24.3843 32.5662 24.2176 32.4996 23.8578L31.989 21.9402C31.3096 22.7695 30.4126 23.4058 29.3025 23.8578C28.1924 24.3053 27.0023 24.5291 25.7324 24.5291C24.0317 24.5291 22.6818 24.0859 21.6871 23.2039C20.688 22.3176 20.1907 21.124 20.1907 19.6233C20.1907 19.0397 20.315 18.4122 20.5637 17.7408C20.8124 17.0695 21.2564 16.4683 21.8914 15.9417C22.5264 15.4152 23.3434 15.0071 24.3381 14.7131C25.3372 14.4235 26.4917 14.3313 27.8061 14.4454C29.1204 14.5595 30.3105 14.8842 31.3762 15.4196V14.7833C31.3762 14.3357 31.2518 13.8486 31.0032 13.3221C30.7545 12.7955 30.2927 12.3479 29.6266 11.9793C28.9561 11.6107 28.1702 11.4265 27.2643 11.4265C25.95 11.4265 24.5423 11.7643 23.0459 12.4357C22.5708 12.5937 22.2289 12.4138 22.0246 11.896L21.3097 9.57909C21.2431 9.39918 21.252 9.21927 21.3452 9.03936C21.434 8.85945 21.5717 8.73658 21.7537 8.67076C22.6818 8.289 23.6987 7.98184 24.7954 7.74489C25.8967 7.50793 26.9535 7.39384 27.9748 7.39384C29.1782 7.39384 30.2794 7.56059 31.2918 7.89847C32.2998 8.23635 33.1657 8.71464 33.8939 9.34213C34.6177 9.96962 35.1728 10.72 35.5591 11.5932C35.9454 12.4664 36.1363 13.4186 36.1363 14.4498V19.1889L36.9845 23.2873H36.9889ZM27.0601 21.1372C27.8283 21.1372 28.5343 21.0143 29.1693 20.7686C29.8043 20.5229 30.2971 20.1806 30.6479 19.7418C30.9987 19.303 31.2563 18.8729 31.4117 18.4473C30.0041 17.7759 28.7874 17.4205 27.7572 17.3898C26.727 17.3547 25.95 17.5258 25.426 17.8944C24.9065 18.263 24.6445 18.7501 24.6445 19.3556C24.6445 19.8954 24.8709 20.3254 25.3239 20.6501C25.7768 20.9748 26.354 21.1372 27.0601 21.1372Z" fill="white"/>
<path d="M51.709 7.39384C53.6361 7.39384 55.1947 7.98184 56.3848 9.15784C57.5748 10.3338 58.1698 11.874 58.1698 13.7784V23.4892C58.1698 23.6471 58.121 23.7744 58.0188 23.8753C57.9167 23.9762 57.7746 24.0245 57.5926 24.0245H53.5473C53.3652 24.0245 53.2232 23.9762 53.121 23.8753C53.0189 23.7744 52.9701 23.6471 52.9701 23.4892V14.8535C52.9701 13.8925 52.6903 13.1071 52.1353 12.5015C51.5802 11.896 50.8608 11.5932 49.9772 11.5932C49.2312 11.5932 48.5074 11.7994 47.8191 12.2163C47.1264 12.6332 46.5225 13.2299 45.9986 14.0154V23.4585C45.9986 23.8402 45.8076 24.0289 45.4213 24.0289H41.3761C41.0119 24.0289 40.8299 23.8402 40.8299 23.4585V13.0764L40.0484 8.50841C39.9818 8.14859 40.1505 7.93796 40.559 7.86775L44.2979 7.42895C44.662 7.40701 44.8751 7.57375 44.9417 7.93357L45.4879 10.4523C46.0563 9.49133 46.8778 8.73658 47.9524 8.20124C49.0269 7.66151 50.2836 7.39384 51.709 7.39384Z" fill="white"/>
<path d="M73.5071 7.39384C75.4342 7.39384 76.9928 7.98184 78.1829 9.15784C79.3729 10.3338 79.9679 11.874 79.9679 13.7784V23.4892C79.9679 23.6471 79.9191 23.7744 79.817 23.8753C79.7148 23.9762 79.5727 24.0245 79.3907 24.0245H75.3454C75.1634 24.0245 75.0213 23.9762 74.9192 23.8753C74.817 23.7744 74.7682 23.6471 74.7682 23.4892V14.8535C74.7682 13.8925 74.4884 13.1071 73.9334 12.5015C73.3783 11.896 72.659 11.5932 71.7753 11.5932C71.0293 11.5932 70.3055 11.7994 69.6173 12.2163C68.9246 12.6332 68.3207 13.2299 67.7967 14.0154V23.4585C67.7967 23.8402 67.6057 24.0289 67.2194 24.0289H63.1742C62.8101 24.0289 62.628 23.8402 62.628 23.4585V13.0764L61.8465 8.50841C61.7799 8.14859 61.9486 7.93796 62.3571 7.86775L66.096 7.42895C66.4601 7.40701 66.6733 7.57375 66.7399 7.93357L67.286 10.4523C67.8544 9.49133 68.6759 8.73658 69.7505 8.20124C70.8251 7.66151 72.0817 7.39384 73.5071 7.39384Z" fill="white"/>
<path d="M91.8017 7.39384C93.0495 7.39384 94.1196 7.56059 95.0166 7.89847C95.9136 8.23635 96.6995 8.68832 97.3789 9.25876C98.0583 9.82921 98.6355 10.6849 99.1151 11.8301C99.5947 12.9754 99.7723 14.384 99.6613 16.0646C99.6391 16.4025 99.4837 16.6745 99.2039 16.8896C98.9197 17.1046 98.5734 17.2099 98.1649 17.2099H87.9296C88.1561 18.2191 88.649 19.0265 89.4083 19.6277C90.1676 20.2332 91.0912 20.536 92.1791 20.536C92.9473 20.536 93.7644 20.4702 94.6258 20.3342C95.4873 20.1981 96.2022 20.0095 96.7661 19.7637C97.0148 19.654 97.2457 19.6277 97.4633 19.6979C97.6764 19.7637 97.8185 19.8998 97.8895 20.1016L98.5023 22.2166C98.6133 22.73 98.5023 23.0811 98.1604 23.2566C97.481 23.6603 96.6196 23.9718 95.5761 24.1956C94.5326 24.4194 93.4003 24.5335 92.1747 24.5335C90.8603 24.5335 89.6392 24.3273 88.5202 23.9104C87.3968 23.4979 86.4421 22.9143 85.6473 22.164C84.8524 21.4136 84.2396 20.5053 83.8089 19.4434C83.3782 18.3815 83.165 17.2187 83.165 15.9637C83.165 13.4098 83.9599 11.3431 85.5451 9.76338C87.1304 8.18369 89.2174 7.39384 91.8017 7.39384ZM95.4739 14.4191C95.4739 13.9715 95.3674 13.4888 95.1498 12.9754C94.9322 12.462 94.537 12.0408 93.9598 11.7161C93.3825 11.3913 92.7164 11.229 91.9704 11.229C90.9713 11.229 90.1188 11.5186 89.4039 12.1022C88.689 12.6858 88.2094 13.4581 87.9607 14.4191H95.4739Z" fill="white"/>
<path d="M114.519 7.86336C114.745 7.95112 114.923 8.10909 115.047 8.33288C115.172 8.55667 115.212 8.79363 115.167 9.03936L114.284 12.0627C114.217 12.3084 114.066 12.4796 113.84 12.5673C113.613 12.6551 113.373 12.6551 113.125 12.5673C112.627 12.2997 112.023 12.1636 111.322 12.1636C110.754 12.1636 110.203 12.3128 109.675 12.6156C109.142 12.9184 108.684 13.3484 108.298 13.9101V23.4541C108.298 23.634 108.245 23.7744 108.143 23.8753C108.04 23.9762 107.912 24.0245 107.752 24.0245H103.707C103.32 24.0245 103.129 23.8358 103.129 23.4541V13.6073L102.348 8.49963C102.281 8.13981 102.45 7.92918 102.858 7.85898L106.362 7.38946C106.544 7.36752 106.708 7.40262 106.855 7.49038C107.001 7.57814 107.099 7.70539 107.143 7.85898L107.721 10.5796C108.063 9.54837 108.649 8.75852 109.488 8.21002C110.327 7.66151 111.255 7.38507 112.277 7.38507C113.182 7.38507 113.933 7.54304 114.519 7.85459V7.86336Z" fill="white"/>
<path d="M120.332 5.41045C119.403 5.41045 118.644 5.15156 118.054 4.63816C117.463 4.12476 117.17 3.449 117.17 2.62405C117.17 1.83859 117.463 1.20671 118.054 0.724026C118.644 0.241342 119.403 0 120.332 0C120.74 0 121.18 0.0789847 121.659 0.236954C122.134 0.394923 122.534 0.688922 122.849 1.12773C123.165 1.56653 123.324 2.06238 123.324 2.62405C123.324 3.45339 123.045 4.12476 122.49 4.63816C121.935 5.15156 121.215 5.41045 120.332 5.41045ZM118.258 24.0289C117.872 24.0289 117.681 23.8402 117.681 23.4584V8.46891C117.681 8.08715 117.872 7.89847 118.258 7.89847H122.303C122.463 7.89847 122.596 7.94674 122.712 8.04766C122.823 8.14859 122.88 8.289 122.88 8.46891V23.4541C122.88 23.634 122.823 23.7744 122.712 23.8753C122.596 23.9762 122.463 24.0245 122.303 24.0245H118.258V24.0289Z" fill="white"/>
<path d="M135.021 7.39384C136.268 7.39384 137.338 7.56059 138.235 7.89847C139.132 8.23635 139.918 8.68832 140.598 9.25876C141.277 9.82921 141.854 10.6849 142.334 11.8301C142.809 12.971 142.991 14.384 142.88 16.0646C142.858 16.4025 142.703 16.6745 142.423 16.8896C142.139 17.1046 141.792 17.2099 141.384 17.2099H131.148C131.375 18.2191 131.868 19.0265 132.627 19.6277C133.386 20.2332 134.31 20.536 135.398 20.536C136.171 20.536 136.983 20.4702 137.845 20.3342C138.706 20.1981 139.421 20.0095 139.985 19.7637C140.234 19.654 140.465 19.6277 140.682 19.6979C140.895 19.7637 141.037 19.8998 141.108 20.1016L141.721 22.2166C141.832 22.73 141.721 23.0811 141.379 23.2566C140.7 23.6603 139.838 23.9718 138.795 24.1956C137.751 24.4194 136.619 24.5335 135.394 24.5335C134.079 24.5335 132.858 24.3273 131.739 23.9104C130.616 23.4979 129.661 22.9143 128.866 22.164C128.071 21.4136 127.458 20.5053 127.032 19.4434C126.601 18.3815 126.384 17.2187 126.384 15.9637C126.384 13.4098 127.179 11.3431 128.764 9.76338C130.349 8.18369 132.436 7.39384 135.021 7.39384ZM138.693 14.4191C138.693 13.9715 138.586 13.4888 138.369 12.9754C138.151 12.462 137.756 12.0408 137.179 11.7161C136.601 11.3913 135.94 11.229 135.189 11.229C134.19 11.229 133.338 11.5186 132.623 12.1022C131.908 12.6858 131.428 13.4581 131.175 14.4191H138.688H138.693Z" fill="white"/>
<path d="M121.526 63.2228C121.655 63.7362 121.411 64.0215 120.798 64.0873L115.989 64.7587C115.505 64.7894 115.212 64.548 115.114 64.039L114.386 61.3009C113.413 62.4857 112.134 63.3984 110.549 64.039C108.96 64.6797 107.259 65 105.447 65C103.018 65 101.091 64.3681 99.6657 63.1044C98.2403 61.8406 97.5299 60.1337 97.5299 57.9923C97.5299 57.1586 97.7075 56.2634 98.0627 55.3024C98.418 54.3415 99.0485 53.4858 99.9588 52.7354C100.865 51.9851 102.032 51.4015 103.458 50.9846C104.883 50.5677 106.535 50.4405 108.413 50.5985C110.292 50.7608 111.992 51.2216 113.515 51.9895V51.0768C113.515 50.4361 113.338 49.7428 112.983 48.988C112.627 48.2377 111.97 47.597 111.015 47.0661C110.061 46.5395 108.933 46.2719 107.636 46.2719C105.758 46.2719 103.751 46.7502 101.611 47.7111C100.931 47.9349 100.443 47.6804 100.154 46.9432L99.1329 43.6303C99.0352 43.3757 99.0529 43.1169 99.1817 42.8623C99.3105 42.6078 99.5059 42.4323 99.7634 42.3358C101.091 41.7917 102.543 41.3529 104.111 41.015C105.678 40.6771 107.197 40.5104 108.653 40.5104C110.372 40.5104 111.948 40.7517 113.391 41.23C114.834 41.7083 116.073 42.3972 117.108 43.2968C118.142 44.1919 118.937 45.267 119.488 46.5132C120.038 47.7638 120.314 49.1241 120.314 50.5941V57.3648L121.53 63.2228H121.526ZM107.339 60.1512C108.44 60.1512 109.444 59.9757 110.349 59.6247C111.255 59.2736 111.961 58.7821 112.463 58.159C112.965 57.5359 113.329 56.9172 113.555 56.3117C111.548 55.3507 109.808 54.8461 108.333 54.7978C106.859 54.7495 105.749 54.9909 105.003 55.5174C104.257 56.044 103.884 56.7417 103.884 57.6062C103.884 58.3741 104.208 58.9928 104.857 59.4535C105.505 59.9187 106.331 60.1512 107.334 60.1512H107.339Z" fill="white"/>
<path d="M142.223 41.2344C142.742 41.2344 143 41.5064 143 42.0506V45.7014C143 46.2148 142.742 46.4693 142.223 46.4693H135.469V56.8865C135.469 57.593 135.669 58.1503 136.077 58.5671C136.481 58.984 136.961 59.1902 137.512 59.1902C138.613 59.1902 139.696 59.0323 140.766 58.7119C141.091 58.6154 141.366 58.633 141.592 58.7602C141.819 58.8875 141.948 59.1113 141.979 59.4316L142.463 62.5997C142.56 63.078 142.383 63.4642 141.93 63.7538C140.473 64.5524 138.462 64.9561 135.904 64.9561C133.573 64.9561 131.704 64.2979 130.291 62.9859C128.884 61.6739 128.178 59.9274 128.178 57.751V46.4693H125.602C125.052 46.4693 124.776 46.2148 124.776 45.7014V42.0506C124.776 41.5064 125.052 41.2344 125.602 41.2344H128.178L129.927 36.8639C130.318 36.1267 130.753 35.7581 131.237 35.7581L134.199 35.7098C134.554 35.7098 134.856 35.8152 135.096 36.0214C135.34 36.232 135.46 36.5085 135.46 36.8595V41.23H142.214L142.223 41.2344Z" fill="white"/>
<path d="M77.1848 58.6297C76.7146 58.6297 76.3319 58.1457 76.3319 57.5517V55.8621C76.3319 55.2637 76.7146 54.7841 77.1848 54.7841H89.5733C90.7583 54.7841 91.7172 53.5697 91.7172 52.0694C91.7172 50.7362 90.8643 49.6538 89.8085 49.6538H77.1848C76.7146 49.6538 76.3319 49.1698 76.3319 48.5758V46.8863C76.3319 46.2879 76.7146 45.8083 77.1848 45.8083H89.5319C90.7398 45.8083 91.7172 44.5675 91.7172 43.0407C91.7172 41.5712 90.7767 40.3788 89.6148 40.3788H77.586C72.4959 40.3788 68.1851 45.4343 68.0514 51.8846C67.9177 58.3349 72.1409 64.0152 77.3739 64.0152H89.6102C90.7721 64.0152 91.7126 62.8228 91.7126 61.3532C91.7126 59.8528 90.7536 58.6384 89.5687 58.6384H77.1802L77.1848 58.6297Z" fill="white"/>
<path d="M69.6804 48.2576H-0.645943C-1.37853 48.2576 -1.97241 48.8263 -1.97241 49.5279V54.866C-1.97241 55.5676 -1.37853 56.1364 -0.645943 56.1364H69.6804C70.413 56.1364 71.0069 55.5676 71.0069 54.866V49.5279C71.0069 48.8263 70.413 48.2576 69.6804 48.2576Z" fill="white"/>
</g>
<defs>
<clipPath id="clip0_114_2010">
<rect width="143" height="65" fill="white"/>
</clipPath>
</defs>
</svg>
