<svg width="19" height="19" viewBox="0 0 19 19" fill="none" xmlns="http://www.w3.org/2000/svg">
<path d="M12.6667 13.4583V15.0417H1.58337V13.4583C1.58337 13.4583 1.58337 10.2917 7.12504 10.2917C12.6667 10.2917 12.6667 13.4583 12.6667 13.4583ZM9.89587 5.9375C9.89587 5.38948 9.73337 4.85377 9.4289 4.39811C9.12444 3.94245 8.6917 3.5873 8.18539 3.37758C7.67909 3.16787 7.12197 3.113 6.58448 3.21991C6.04699 3.32682 5.55327 3.59072 5.16577 3.97823C4.77826 4.36573 4.51436 4.85945 4.40745 5.39694C4.30053 5.93443 4.35541 6.49155 4.56512 6.99785C4.77484 7.50416 5.12999 7.9369 5.58565 8.24136C6.04131 8.54583 6.57702 8.70833 7.12504 8.70833C7.85991 8.70833 8.56468 8.41641 9.08432 7.89678C9.60395 7.37714 9.89587 6.67237 9.89587 5.9375ZM12.6192 10.2917C13.1059 10.6683 13.5041 11.147 13.7859 11.6941C14.0676 12.2412 14.2261 12.8434 14.25 13.4583V15.0417H17.4167V13.4583C17.4167 13.4583 17.4167 10.5846 12.6192 10.2917ZM11.875 3.16667C11.3301 3.16363 10.7972 3.32655 10.3471 3.63375C10.828 4.30567 11.0866 5.11123 11.0866 5.9375C11.0866 6.76377 10.828 7.56933 10.3471 8.24125C10.7972 8.54845 11.3301 8.71137 11.875 8.70833C12.6099 8.70833 13.3147 8.41641 13.8343 7.89678C14.3539 7.37714 14.6459 6.67237 14.6459 5.9375C14.6459 5.20263 14.3539 4.49786 13.8343 3.97823C13.3147 3.45859 12.6099 3.16667 11.875 3.16667Z" fill="white"/>
</svg>
